<svg width="29" height="29" viewBox="0 0 29 29" fill="none" xmlns="http://www.w3.org/2000/svg">
<g clip-path="url(#clip0_759_780)">
<path d="M23.9508 6.75196C23.9508 5.78937 23.1706 5.01208 22.2116 5.01208C21.2525 5.01208 20.4717 5.78937 20.4717 6.75196C20.4717 7.71102 21.2525 8.48827 22.2116 8.48827C23.1706 8.48827 23.9508 7.71102 23.9508 6.75196Z" fill="url(#paint0_linear_759_780)"/>
<path d="M26.2684 20.333C26.204 21.7451 25.9678 22.5123 25.7718 23.0219C25.5083 23.6975 25.1942 24.1806 24.6846 24.6873C24.1807 25.1941 23.6976 25.5075 23.022 25.768C22.5124 25.967 21.7423 26.2039 20.3302 26.2712C18.8037 26.3385 18.3514 26.3528 14.4801 26.3528C10.6125 26.3528 10.1565 26.3385 8.62994 26.2712C7.2179 26.2039 6.45136 25.967 5.94174 25.768C5.26256 25.5075 4.78306 25.1941 4.27634 24.6873C3.76603 24.1806 3.45185 23.6975 3.19205 23.0219C2.99591 22.5123 2.75619 21.7451 2.69532 20.333C2.62092 18.8064 2.60729 18.3469 2.60729 14.4836C2.60729 10.6123 2.62092 10.1564 2.69532 8.62979C2.75619 7.21775 2.99591 6.45126 3.19205 5.93735C3.45185 5.26244 3.76603 4.78219 4.27634 4.27547C4.78306 3.76951 5.26256 3.45527 5.94174 3.19193C6.45136 2.99225 7.2179 2.75892 8.62994 2.69166C10.1565 2.62434 10.6125 2.60717 14.4801 2.60717C18.3514 2.60717 18.8037 2.62434 20.3302 2.69166C21.7423 2.75892 22.5124 2.99225 23.022 3.19193C23.6976 3.45527 24.1807 3.76951 24.6846 4.27547C25.1942 4.78219 25.5083 5.26244 25.7718 5.93735C25.9678 6.45126 26.204 7.21775 26.2684 8.62979C26.3393 10.1564 26.3564 10.6123 26.3564 14.4836C26.3564 18.3469 26.3393 18.8064 26.2684 20.333ZM28.8757 8.51102C28.8049 6.96793 28.5615 5.91372 28.2001 4.9955C27.8323 4.04288 27.3391 3.23557 26.5318 2.42826C25.7281 1.62454 24.9208 1.13141 23.9682 0.759257C23.0464 0.401389 21.9957 0.155168 20.4519 0.0879104C18.9081 0.0134592 18.4151 -0.00012207 14.4801 -0.00012207C10.5487 -0.00012207 10.0521 0.0134592 8.5083 0.0879104C6.96809 0.155168 5.91812 0.401389 4.99203 0.759257C4.04301 1.13141 3.23569 1.62454 2.43198 2.42826C1.62466 3.23557 1.13153 4.04288 0.760077 4.9955C0.402207 5.91372 0.158886 6.96793 0.0844351 8.51102C0.0171768 10.0548 0 10.5486 0 14.4836C0 18.415 0.0171768 18.908 0.0844351 20.4518C0.158886 21.992 0.402207 23.0455 0.760077 23.9681C1.13153 24.9171 1.62466 25.728 2.43198 26.5317C3.23569 27.3354 4.04301 27.8321 4.99203 28.2036C5.91812 28.5614 6.96809 28.8048 8.5083 28.8756C10.0521 28.9465 10.5487 28.9637 14.4801 28.9637C18.4151 28.9637 18.9081 28.9465 20.4519 28.8756C21.9957 28.8048 23.0464 28.5614 23.9682 28.2036C24.9208 27.8321 25.7281 27.3354 26.5318 26.5317C27.3391 25.728 27.8323 24.9171 28.2001 23.9681C28.5615 23.0455 28.8049 21.992 28.8757 20.4518C28.9466 18.908 28.9638 18.415 28.9638 14.4836C28.9638 10.5486 28.9466 10.0548 28.8757 8.51102Z" fill="url(#paint1_linear_759_780)"/>
<path d="M14.4799 19.3068C11.8153 19.3068 9.65318 17.1482 9.65318 14.4836C9.65318 11.8148 11.8153 9.65341 14.4799 9.65341C17.1452 9.65341 19.3102 11.8148 19.3102 14.4836C19.3102 17.1482 17.1452 19.3068 14.4799 19.3068ZM14.4799 7.04254C10.3725 7.04254 7.0459 10.3762 7.0459 14.4836C7.0459 18.5875 10.3725 21.9177 14.4799 21.9177C18.5873 21.9177 21.9175 18.5875 21.9175 14.4836C21.9175 10.3762 18.5873 7.04254 14.4799 7.04254Z" fill="url(#paint2_linear_759_780)"/>
</g>
<defs>
<linearGradient id="paint0_linear_759_780" x1="0.260974" y1="28.6643" x2="26.5511" y2="2.37426" gradientUnits="userSpaceOnUse">
<stop stop-color="#FFD521"/>
<stop offset="0.05" stop-color="#FFD521"/>
<stop offset="0.501119" stop-color="#F50000"/>
<stop offset="0.95" stop-color="#B900B4"/>
<stop offset="0.950079" stop-color="#B900B4"/>
<stop offset="1" stop-color="#B900B4"/>
</linearGradient>
<linearGradient id="paint1_linear_759_780" x1="0.261249" y1="28.7003" x2="26.573" y2="2.38854" gradientUnits="userSpaceOnUse">
<stop stop-color="#FFD521"/>
<stop offset="0.05" stop-color="#FFD521"/>
<stop offset="0.501119" stop-color="#F50000"/>
<stop offset="0.95" stop-color="#B900B4"/>
<stop offset="0.950079" stop-color="#B900B4"/>
<stop offset="1" stop-color="#B900B4"/>
</linearGradient>
<linearGradient id="paint2_linear_759_780" x1="0.267863" y1="28.7011" x2="26.5733" y2="2.39569" gradientUnits="userSpaceOnUse">
<stop stop-color="#FFD521"/>
<stop offset="0.05" stop-color="#FFD521"/>
<stop offset="0.501119" stop-color="#F50000"/>
<stop offset="0.95" stop-color="#B900B4"/>
<stop offset="0.950079" stop-color="#B900B4"/>
<stop offset="1" stop-color="#B900B4"/>
</linearGradient>
<clipPath id="clip0_759_780">
<rect width="29" height="29" fill="white"/>
</clipPath>
</defs>
</svg>
