<svg width="30" height="29" viewBox="0 0 30 29" fill="none" xmlns="http://www.w3.org/2000/svg">
<g clip-path="url(#clip0_759_784)">
<path d="M15.3765 29.0226C23.3909 29.0226 29.8878 22.5257 29.8878 14.5113C29.8878 6.49693 23.3909 0 15.3765 0C7.36216 0 0.865234 6.49693 0.865234 14.5113C0.865234 22.5257 7.36216 29.0226 15.3765 29.0226Z" fill="url(#paint0_linear_759_784)"/>
<path d="M15.3765 29.0226C23.3909 29.0226 29.8878 22.5257 29.8878 14.5113C29.8878 6.49693 23.3909 0 15.3765 0C7.36216 0 0.865234 6.49693 0.865234 14.5113C0.865234 22.5257 7.36216 29.0226 15.3765 29.0226Z" fill="url(#paint1_linear_759_784)"/>
<path fill-rule="evenodd" clip-rule="evenodd" d="M7.42042 14.3531C11.6472 12.4996 14.4726 11.3016 15.8966 10.7139C19.92 9.0413 20.7564 8.74746 21.2988 8.72485C21.4118 8.72485 21.6831 8.74746 21.8639 8.88308C21.9995 8.99609 22.0447 9.15432 22.0673 9.26733C22.0899 9.38035 22.1125 9.62898 22.0899 9.83241C21.8639 12.1153 20.9372 17.6984 20.4399 20.2525C20.2365 21.3375 19.8296 21.6991 19.4454 21.7443C18.609 21.8121 17.9535 21.1793 17.1398 20.6594C15.874 19.8231 15.1507 19.3032 13.9076 18.4895C12.4836 17.5401 13.4103 17.0203 14.224 16.1839C14.4274 15.9579 18.157 12.59 18.2248 12.2736C18.2248 12.2284 18.2474 12.0927 18.157 12.0249C18.0666 11.9571 17.9535 11.9797 17.8631 12.0023C17.7275 12.0249 15.6932 13.3811 11.7376 16.0483C11.15 16.4552 10.6301 16.636 10.1554 16.636C9.63554 16.636 8.641 16.3422 7.89509 16.0935C6.99096 15.7997 6.26765 15.6415 6.33546 15.1442C6.38067 14.8955 6.74232 14.6243 7.42042 14.3531Z" fill="white"/>
</g>
<defs>
<linearGradient id="paint0_linear_759_784" x1="0.865234" y1="14.5008" x2="29.8668" y2="14.5008" gradientUnits="userSpaceOnUse">
<stop stop-color="#2AABEE"/>
<stop offset="1" stop-color="#229ED9"/>
</linearGradient>
<linearGradient id="paint1_linear_759_784" x1="0.865234" y1="14.5008" x2="29.8668" y2="14.5008" gradientUnits="userSpaceOnUse">
<stop stop-color="#2AABEE"/>
<stop offset="1" stop-color="#229ED9"/>
</linearGradient>
<clipPath id="clip0_759_784">
<rect width="29" height="29" fill="white" transform="translate(0.864258)"/>
</clipPath>
</defs>
</svg>
