<svg width="50" height="50" viewBox="0 0 50 50" fill="none" xmlns="http://www.w3.org/2000/svg">
<path d="M33.1289 14.4939C33.1289 13.9447 33.347 13.4181 33.7353 13.0298C34.1236 12.6415 34.6503 12.4233 35.1994 12.4233C35.7486 12.4233 36.2752 12.6415 36.6635 13.0298C37.0518 13.4181 37.2699 13.9447 37.2699 14.4939C37.2699 15.043 37.0518 15.5696 36.6635 15.9579C36.2752 16.3462 35.7486 16.5644 35.1994 16.5644C34.6503 16.5644 34.1236 16.3462 33.7353 15.9579C33.347 15.5696 33.1289 15.043 33.1289 14.4939Z" fill="white"/>
<path fill-rule="evenodd" clip-rule="evenodd" d="M24.8467 15.0112C22.2383 15.0112 19.7367 16.0474 17.8923 17.8918C16.0479 19.7362 15.0117 22.2378 15.0117 24.8462C15.0117 27.4546 16.0479 29.9561 17.8923 31.8005C19.7367 33.6449 22.2383 34.6811 24.8467 34.6811C27.455 34.6811 29.9566 33.6449 31.801 31.8005C33.6454 29.9561 34.6816 27.4546 34.6816 24.8462C34.6816 22.2378 33.6454 19.7362 31.801 17.8918C29.9566 16.0474 27.455 15.0112 24.8467 15.0112ZM18.1175 24.8462C18.1175 23.0615 18.8265 21.3499 20.0884 20.0879C21.3504 18.826 23.062 18.117 24.8467 18.117C26.6313 18.117 28.3429 18.826 29.6049 20.0879C30.8669 21.3499 31.5758 23.0615 31.5758 24.8462C31.5758 26.6309 30.8669 28.3424 29.6049 29.6044C28.3429 30.8664 26.6313 31.5753 24.8467 31.5753C23.062 31.5753 21.3504 30.8664 20.0884 29.6044C18.8265 28.3424 18.1175 26.6309 18.1175 24.8462Z" fill="white"/>
<path fill-rule="evenodd" clip-rule="evenodd" d="M35.7322 5.86602C28.4966 5.06354 21.1944 5.06354 13.9587 5.86602C9.79283 6.33189 6.42824 9.61365 5.9396 13.8002C5.08263 21.1394 5.08263 28.5534 5.9396 35.8926C6.42824 40.0792 9.79076 43.3609 13.9587 43.8268C21.1944 44.6276 28.4965 44.6276 35.7322 43.8268C39.8981 43.3609 43.2627 40.0792 43.7513 35.8926C44.6083 28.5534 44.6083 21.1394 43.7513 13.8002C43.2627 9.61365 39.9002 6.33189 35.7322 5.86602ZM14.3024 8.95108C21.3096 8.17404 28.3813 8.17404 35.3885 8.95108C38.1423 9.26166 40.3474 11.4336 40.6683 14.1626C41.4989 21.2609 41.4989 28.4319 40.6683 35.5303C40.5023 36.8658 39.8909 38.1064 38.9329 39.0517C37.9749 39.9969 36.7262 40.5916 35.3885 40.7397C28.3813 41.5167 21.3096 41.5167 14.3024 40.7397C12.9647 40.5916 11.716 39.9969 10.758 39.0517C9.79999 38.1064 9.18859 36.8658 9.0226 35.5303C8.19202 28.4319 8.19202 21.2609 9.0226 14.1626C9.18859 12.827 9.79999 11.5864 10.758 10.6411C11.716 9.6959 12.9647 9.09914 14.3024 8.95108Z" fill="white"/>
</svg>
