<svg width="35" height="37" viewBox="0 0 35 37" fill="none" xmlns="http://www.w3.org/2000/svg">
<path d="M18.5991 36.6705C15.7013 36.6705 13.1398 36.2727 10.9144 35.4773C8.68904 34.6913 6.81877 33.5313 5.30362 31.9972C3.78847 30.4631 2.64264 28.5833 1.86612 26.358C1.08961 24.1326 0.70135 21.5852 0.70135 18.7159C0.70135 15.9413 1.09434 13.4602 1.88033 11.2727C2.67578 9.08523 3.82635 7.22917 5.33203 5.70455C6.84718 4.17045 8.6843 3.00095 10.8434 2.19602C13.012 1.3911 15.4646 0.988635 18.2013 0.988635C20.8623 0.988635 23.1919 1.42424 25.19 2.29545C27.1976 3.1572 28.8737 4.3267 30.2184 5.80398C31.5726 7.27178 32.5858 8.92424 33.2582 10.7614C33.94 12.5985 34.2809 14.4924 34.2809 16.4432C34.2809 17.8163 34.2146 19.2083 34.082 20.6193C33.9495 22.0303 33.6701 23.3277 33.244 24.5114C32.8178 25.6856 32.1597 26.6326 31.2695 27.3523C30.3888 28.072 29.1957 28.4318 27.69 28.4318C27.0271 28.4318 26.2979 28.3277 25.5025 28.1193C24.707 27.911 24.0015 27.5653 23.386 27.0824C22.7705 26.5994 22.4059 25.9508 22.2923 25.1364H22.1218C21.8945 25.6856 21.5442 26.2064 21.0707 26.6989C20.6067 27.1913 19.9959 27.5843 19.2383 27.8778C18.4902 28.1714 17.5763 28.2992 16.4968 28.2614C15.2657 28.214 14.1815 27.9394 13.244 27.4375C12.3065 26.9261 11.5205 26.2348 10.886 25.3636C10.261 24.483 9.78752 23.465 9.46555 22.3097C9.15305 21.1449 8.9968 19.8902 8.9968 18.5455C8.9968 17.267 9.1862 16.0975 9.56499 15.0369C9.94377 13.9763 10.4693 13.0483 11.1417 12.2528C11.8235 11.4574 12.619 10.8229 13.5281 10.3494C14.4466 9.86648 15.4362 9.56818 16.4968 9.45455C17.4438 9.35985 18.3055 9.40246 19.082 9.58239C19.8585 9.75284 20.4978 10.0133 20.9996 10.3636C21.5015 10.7045 21.8188 11.0833 21.9514 11.5H22.1218V9.90909H25.1332V22.75C25.1332 23.5455 25.3557 24.2462 25.8008 24.8523C26.2459 25.4583 26.8945 25.7614 27.7468 25.7614C28.7127 25.7614 29.4514 25.4299 29.9627 24.767C30.4835 24.1042 30.8387 23.0814 31.0281 21.6989C31.2269 20.3163 31.3264 18.5455 31.3264 16.3864C31.3264 15.1174 31.1512 13.8674 30.8008 12.6364C30.4599 11.3958 29.939 10.2358 29.2383 9.15625C28.547 8.0767 27.671 7.125 26.6104 6.30114C25.5498 5.47727 24.3046 4.83333 22.8746 4.36932C21.4542 3.89583 19.8396 3.65909 18.0309 3.65909C15.8055 3.65909 13.8121 4.00473 12.0508 4.69602C10.2989 5.37784 8.80741 6.37689 7.57635 7.69318C6.35476 9 5.42199 10.5909 4.77805 12.4659C4.14358 14.3314 3.82635 16.4527 3.82635 18.8295C3.82635 21.2443 4.14358 23.3892 4.77805 25.2642C5.42199 27.1392 6.36896 28.7206 7.61896 30.0085C8.87843 31.2964 10.4362 32.2718 12.2923 32.9347C14.1483 33.607 16.2885 33.9432 18.7127 33.9432C19.7544 33.9432 20.7818 33.8438 21.7951 33.6449C22.8084 33.446 23.7032 33.2282 24.4798 32.9915C25.2563 32.7547 25.815 32.5795 26.1559 32.4659L26.9514 35.0795C26.3642 35.3258 25.5972 35.572 24.6502 35.8182C23.7127 36.0644 22.7089 36.268 21.6389 36.429C20.5782 36.59 19.565 36.6705 18.5991 36.6705ZM16.9513 25.3636C18.2203 25.3636 19.2478 25.108 20.0337 24.5966C20.8197 24.0852 21.3926 23.3134 21.7525 22.2812C22.1123 21.2491 22.2923 19.947 22.2923 18.375C22.2923 16.7841 22.0934 15.5436 21.6957 14.6534C21.2979 13.7633 20.7108 13.1383 19.9343 12.7784C19.1578 12.4186 18.2013 12.2386 17.065 12.2386C15.9854 12.2386 15.0621 12.5227 14.2951 13.0909C13.5375 13.6496 12.9551 14.3977 12.5479 15.3352C12.1502 16.2633 11.9513 17.2765 11.9513 18.375C11.9513 19.5871 12.1123 20.7282 12.4343 21.7983C12.7563 22.8589 13.2818 23.7206 14.011 24.3835C14.7402 25.0369 15.7203 25.3636 16.9513 25.3636Z" fill="white"/>
</svg>
