<svg width="35" height="34" viewBox="0 0 35 34" fill="none" xmlns="http://www.w3.org/2000/svg">
<path fill-rule="evenodd" clip-rule="evenodd" d="M2.41801 14.6923C11.8001 9.85384 18.0715 6.72658 21.2323 5.19244C30.1628 0.826072 32.0191 0.059005 33.2232 0C33.4741 0 34.0761 0.0590055 34.4775 0.413036C34.7785 0.708061 34.8789 1.1211 34.929 1.41612C34.9792 1.71115 35.0294 2.3602 34.9792 2.89125C34.4775 8.85076 32.4205 23.425 31.3167 30.0926C30.8652 32.9248 29.9621 33.8689 29.1092 33.9869C27.2528 34.1639 25.7979 32.5118 23.9917 31.1547C21.1821 28.9715 19.5766 27.6144 16.8172 25.4902C13.6564 23.012 15.7134 21.6548 17.5196 19.4717C17.9711 18.8816 26.2494 10.0899 26.3999 9.26379C26.3999 9.14578 26.4501 8.79175 26.2494 8.61474C26.0487 8.43772 25.7979 8.49672 25.5972 8.55573C25.2961 8.61473 20.7807 12.155 12.0007 19.1176C10.6963 20.1797 9.54234 20.6518 8.48874 20.6518C7.3348 20.6518 5.12726 19.8847 3.47161 19.2356C1.46475 18.4686 -0.140729 18.0555 0.00978527 16.7574C0.110128 16.1084 0.912869 15.4003 2.41801 14.6923Z" fill="white"/>
</svg>
