<svg width="39" height="40" viewBox="0 0 39 40" fill="none" xmlns="http://www.w3.org/2000/svg">
<path d="M33.3166 5.70313C31.5198 3.88821 29.3797 2.44921 27.021 1.47007C24.6623 0.490918 22.1322 -0.00878012 19.5784 0.000116744C8.87789 0.000116744 0.156784 8.72122 0.156784 19.4217C0.156784 22.8514 1.05829 26.183 2.74372 29.1227L0 39.1961L10.2889 36.4916C13.1307 38.0398 16.3251 38.8629 19.5784 38.8629C30.2789 38.8629 39 30.1418 39 19.4413C39 14.2479 36.9814 9.36796 33.3166 5.70313ZM19.5784 35.5705C16.6779 35.5705 13.8362 34.7865 11.3472 33.3167L10.7593 32.9639L4.64472 34.571L6.27136 28.6132L5.8794 28.0056C4.26794 25.4324 3.41228 22.4579 3.41005 19.4217C3.41005 10.5242 10.6613 3.27298 19.5588 3.27298C23.8703 3.27298 27.9271 4.95841 30.9648 8.01569C32.4689 9.51291 33.6609 11.2938 34.4717 13.2551C35.2824 15.2164 35.6958 17.3191 35.6879 19.4413C35.7271 28.3388 28.4759 35.5705 19.5784 35.5705ZM28.4367 23.4981C27.9467 23.2629 25.5558 22.0871 25.1246 21.9107C24.6739 21.7539 24.3603 21.6755 24.0271 22.1458C23.694 22.6358 22.7729 23.7333 22.4985 24.0469C22.2241 24.38 21.9301 24.4192 21.4402 24.1644C20.9502 23.9293 19.3824 23.4001 17.5402 21.7539C16.0899 20.4604 15.1296 18.873 14.8357 18.383C14.5613 17.8931 14.7965 17.6383 15.0513 17.3835C15.2668 17.168 15.5412 16.8152 15.7764 16.5408C16.0116 16.2664 16.1095 16.0509 16.2663 15.7373C16.4231 15.4041 16.3447 15.1298 16.2271 14.8946C16.1095 14.6594 15.1296 12.2685 14.7377 11.2886C14.3457 10.3479 13.9342 10.4654 13.6402 10.4458H12.6995C12.3663 10.4458 11.8568 10.5634 11.406 11.0534C10.9749 11.5433 9.7206 12.7192 9.7206 15.1102C9.7206 17.5011 11.4648 19.8137 11.7 20.1273C11.9352 20.4604 15.1296 25.3599 19.9899 27.4569C21.1462 27.9664 22.0477 28.2604 22.7533 28.476C23.9095 28.8484 24.9678 28.7896 25.8106 28.672C26.7513 28.5348 28.6915 27.4961 29.0834 26.3594C29.495 25.2227 29.495 24.2624 29.3578 24.0469C29.2206 23.8313 28.9266 23.7333 28.4367 23.4981Z" fill="white"/>
</svg>
